<svg width="312" height="95" viewBox="0 0 312 95" fill="none" xmlns="http://www.w3.org/2000/svg">
<path d="M312 73C312 85.1503 302.15 95 290 95L55 95C24.6243 95 2.15273e-06 70.3756 4.80825e-06 40L5.50763e-06 32C7.05267e-06 14.3269 14.3269 4.49417e-06 32 6.0392e-06L290 2.85943e-05C302.15 2.96565e-05 312 9.84977 312 22L312 73Z" fill="#1A7563"/>
<g clip-path="url(#clip0_319_1051)">
<path d="M181.249 59H179.496C179.496 54.0314 175.499 49.9928 170.582 49.9928C165.665 49.9928 161.668 54.0314 161.668 59H159.916C159.916 53.0572 164.701 48.2214 170.582 48.2214C176.463 48.2214 181.249 53.0572 181.249 59Z" fill="white"/>
<path d="M170.582 49.3816C167.401 49.3816 164.806 46.6006 164.806 43.1908C164.806 39.781 167.401 37 170.582 37C173.764 37 176.358 39.781 176.358 43.1908C176.358 46.6006 173.764 49.3816 170.582 49.3816ZM170.582 38.7713C168.365 38.7713 166.559 40.7552 166.559 43.1908C166.559 45.6264 168.365 47.6103 170.582 47.6103C172.8 47.6103 174.605 45.6264 174.605 43.1908C174.605 40.7552 172.8 38.7713 170.582 38.7713Z" fill="white"/>
</g>
<g clip-path="url(#clip1_319_1051)">
<path d="M134.913 58.9999C134.854 58.9999 134.803 58.9999 134.752 58.9999C131.851 58.8669 129.725 56.8443 128.932 56.0903C128.206 55.3983 127.186 54.2451 126.857 53.8636C126.62 53.5886 126.047 52.9411 125.507 52.258C124.528 51.0338 123.634 49.7032 122.909 48.408C121.601 46.0838 119.636 42.5709 121.036 39.9274C121.188 39.6435 121.365 39.3862 121.584 39.1467L123.17 37.6653C124.216 36.6983 125.819 36.7959 126.747 37.887L128.451 39.9007C129.328 40.9298 129.294 42.5266 128.383 43.5201L127.877 44.0701C127.725 44.2386 127.641 44.4604 127.641 44.6911C127.641 44.904 127.717 45.108 127.844 45.2766L132.77 51.3088C132.913 51.4862 133.124 51.6016 133.344 51.6193H133.445C133.656 51.6459 133.85 51.5838 134.01 51.4596L134.272 51.2645C135.334 50.4483 136.836 50.6435 137.688 51.6903L139.291 53.6685C140.185 54.7685 140.067 56.4451 139.038 57.4032C137.663 58.6806 135.807 58.9999 134.887 58.9999H134.913ZM124.849 38.7741C124.646 38.7741 124.444 38.8451 124.284 38.9959L122.748 40.4241C122.681 40.4951 122.588 40.6459 122.504 40.7967C121.576 42.5532 123.314 45.658 124.351 47.512C125.026 48.7185 125.87 49.9693 126.789 51.1225C127.304 51.7701 127.852 52.3999 128.071 52.6483C128.949 53.6419 129.607 54.3516 130.054 54.7774C130.796 55.4782 132.525 57.1282 134.82 57.2346C135.394 57.2612 136.929 57.0128 137.941 56.0814C138.287 55.762 138.329 55.2032 138.025 54.8306L136.423 52.8524C136.136 52.4975 135.638 52.4354 135.275 52.7104L135.014 52.9145C134.525 53.287 133.926 53.4645 133.327 53.4112H133.226C132.551 53.3491 131.935 53.0209 131.496 52.4798L126.57 46.4475C126.173 45.9596 125.954 45.3475 125.954 44.7088C125.954 44.0169 126.207 43.3604 126.663 42.8636L127.169 42.3136C127.472 41.9766 127.481 41.4443 127.194 41.0983L125.49 39.0846C125.321 38.8895 125.085 38.783 124.857 38.783L124.849 38.7741Z" fill="white"/>
</g>
<g clip-path="url(#clip2_319_1051)">
<path d="M54.5071 59H43.0486C41.9309 59 40.8463 58.5259 40.0846 57.7025C39.323 56.879 38.9255 55.7645 39.0083 54.6416L39.8197 43.5376H57.5952L58.539 54.5917C58.6384 55.7229 58.2493 56.8541 57.4876 57.6858C56.7259 58.5176 55.6413 59 54.5071 59ZM41.3596 45.2011L40.6642 54.758C40.6145 55.4318 40.8381 56.0722 41.2934 56.5713C41.7488 57.062 42.3697 57.3365 43.0403 57.3365H54.5071C55.186 57.3365 55.8069 57.062 56.2705 56.563C56.7342 56.0639 56.9494 55.4151 56.8915 54.7331L56.0801 45.2011H41.3596Z" fill="white"/>
<path d="M55.8979 44.1531H54.242C54.242 41.1255 51.7914 38.6635 48.7777 38.6635C45.7641 38.6635 43.3134 41.1255 43.3134 44.1531H41.6576C41.6576 40.2106 44.8534 37 48.7777 37C52.7021 37 55.8979 40.2106 55.8979 44.1531Z" fill="white"/>
</g>
<g clip-path="url(#clip3_319_1051)">
<path d="M87.6966 55.5413C82.6514 55.5413 78.5555 51.3784 78.5555 46.2707C78.5555 41.1629 82.6514 37 87.6966 37C92.7417 37 96.8376 41.154 96.8376 46.2707C96.8376 51.3874 92.7417 55.5413 87.6966 55.5413ZM87.6966 38.7828C83.6271 38.7828 80.3134 42.1434 80.3134 46.2707C80.3134 50.3979 83.6271 53.7585 87.6966 53.7585C91.7661 53.7585 95.0797 50.3979 95.0797 46.2707C95.0797 42.1434 91.7661 38.7828 87.6966 38.7828Z" fill="white"/>
<path d="M94.252 51.3494L93.009 52.6101L99.3111 59.0015L100.554 57.7409L94.252 51.3494Z" fill="white"/>
</g>
<path d="M224.372 54V43.8182H230.517V44.9119H225.605V48.3523H230.198V49.446H225.605V52.9062H230.596V54H224.372ZM240.813 43.8182V54H239.619L234.071 46.0057H233.972V54H232.739V43.8182H233.932L239.5 51.8324H239.6V43.8182H240.813ZM248.768 40.5369V57.2812H247.774V40.5369H248.768ZM262.695 47C262.586 46.6652 262.442 46.3653 262.263 46.1001C262.087 45.8317 261.876 45.603 261.631 45.4141C261.389 45.2251 261.114 45.081 260.806 44.9815C260.498 44.8821 260.16 44.8324 259.792 44.8324C259.189 44.8324 258.64 44.9882 258.146 45.2997C257.652 45.6113 257.26 46.0703 256.968 46.6768C256.676 47.2834 256.53 48.0275 256.53 48.9091C256.53 49.7907 256.678 50.5348 256.973 51.1413C257.268 51.7479 257.667 52.2069 258.171 52.5185C258.675 52.83 259.242 52.9858 259.871 52.9858C260.455 52.9858 260.968 52.8615 261.412 52.6129C261.86 52.361 262.208 52.0064 262.456 51.549C262.708 51.0883 262.834 50.5464 262.834 49.9233L263.212 50.0028H260.15V48.9091H264.028V50.0028C264.028 50.8414 263.849 51.5705 263.491 52.1903C263.136 52.8101 262.645 53.2907 262.019 53.6321C261.396 53.9702 260.68 54.1392 259.871 54.1392C258.97 54.1392 258.178 53.9271 257.495 53.5028C256.815 53.0786 256.285 52.4754 255.904 51.6932C255.526 50.911 255.337 49.983 255.337 48.9091C255.337 48.1037 255.445 47.3795 255.66 46.7365C255.879 46.0902 256.187 45.54 256.585 45.0859C256.983 44.6319 257.453 44.2839 257.997 44.0419C258.541 43.8 259.139 43.679 259.792 43.679C260.329 43.679 260.829 43.7602 261.293 43.9226C261.76 44.0817 262.176 44.3087 262.541 44.6037C262.909 44.8954 263.215 45.245 263.461 45.6527C263.706 46.0571 263.875 46.5062 263.968 47H262.695ZM266.139 54V43.8182H269.58C270.375 43.8182 271.028 43.9541 271.538 44.2259C272.049 44.4943 272.427 44.8639 272.672 45.3345C272.917 45.8052 273.04 46.3404 273.04 46.9403C273.04 47.5402 272.917 48.0722 272.672 48.5362C272.427 49.0002 272.05 49.3648 271.543 49.63C271.036 49.8918 270.388 50.0227 269.599 50.0227H266.815V48.9091H269.56C270.103 48.9091 270.541 48.8295 270.872 48.6705C271.207 48.5114 271.449 48.286 271.598 47.9943C271.75 47.6993 271.827 47.348 271.827 46.9403C271.827 46.5327 271.75 46.1764 271.598 45.8714C271.446 45.5665 271.202 45.3312 270.867 45.1655C270.532 44.9964 270.09 44.9119 269.54 44.9119H267.372V54H266.139ZM270.932 49.4261L273.438 54H272.006L269.54 49.4261H270.932Z" fill="white"/>
<defs>
<clipPath id="clip0_319_1051">
<rect width="21.3333" height="22" fill="white" transform="translate(159.916 37)"/>
</clipPath>
<clipPath id="clip1_319_1051">
<rect width="19.36" height="22" fill="white" transform="translate(120.556 37)"/>
</clipPath>
<clipPath id="clip2_319_1051">
<rect width="19.5555" height="22" fill="white" transform="translate(39 37)"/>
</clipPath>
<clipPath id="clip3_319_1051">
<rect width="22" height="22" fill="white" transform="translate(78.5555 37)"/>
</clipPath>
</defs>
</svg>
