<svg width="175" height="80" viewBox="0 0 175 80" fill="none" xmlns="http://www.w3.org/2000/svg">
<g clip-path="url(#clip0_68_202)">
<path d="M17.927 74.3215C17.927 77.5817 14.7349 79.9591 9.57104 79.9591H9.16603C5.64351 79.9591 3.34135 79.1507 1.72131 78.4167C1.36959 78.2678 1.14044 78.188 1.01255 78.188C0.783397 78.188 0.682144 78.3369 0.383716 78.6667C0.255818 78.5922 0.127921 78.5656 0.00535202 78.4912C0.714119 76.9754 1.44953 75.5607 2.18494 74.0715C2.31284 74.146 2.43541 74.1992 2.56331 74.2736C2.46205 74.4225 2.41409 74.5502 2.41409 74.6778C2.41409 75.1086 2.947 75.5873 4.03413 76.0925C5.55292 76.8265 7.34881 77.2786 9.55505 77.2786C12.5713 77.2786 14.2926 76.2415 14.2926 74.7257C14.2926 73.9439 13.9355 73.3854 13.2001 73.0557C12.3901 72.577 11.3509 72.577 8.59582 72.5026C5.68081 72.3749 3.88492 71.9707 2.59528 71.0879C1.50815 70.3273 0.948598 69.2423 0.948598 67.8542C0.948598 64.8227 4.08742 62.674 9.05412 62.674C12.0171 62.674 14.218 63.4558 15.8647 64.0409C16.0405 64.0887 16.1951 64.1153 16.3176 64.1153C16.3923 64.1153 16.4455 64.1419 16.5201 64.1419C16.7973 64.1419 16.8719 64.0409 17.101 63.7111C17.2289 63.7856 17.3515 63.8122 17.4794 63.8866C16.7973 65.2269 16.2111 66.5618 15.5289 67.9074C15.401 67.8329 15.2785 67.8063 15.1506 67.7319C15.2252 67.4287 15.2785 67.3011 15.2785 67.2C15.2785 66.9235 14.9747 66.6203 14.3938 66.3438C13.0989 65.7109 11.2017 65.3067 9.17669 65.3067C6.26168 65.3067 4.46579 66.3438 4.46579 67.6574C4.46579 68.2371 4.76954 68.6679 5.35041 68.9445C6.05918 69.2743 7.0717 69.3753 8.9955 69.4498L10.6688 69.5242C13.4772 69.6519 15.1239 70.0773 16.2644 70.8911C17.3781 71.6995 17.9377 72.8376 17.9377 74.3268L17.927 74.3215Z" fill="#231F20"/>
<path d="M23.0429 79.7304V79.2996C23.7251 79.1241 23.8263 78.9698 23.8263 78.3423V64.3174C23.8263 63.6898 23.7251 63.5356 23.0429 63.3601V62.9293H28.4093V63.3601C27.7272 63.5356 27.5993 63.6898 27.5993 64.3174V78.3423C27.5993 78.9752 27.7272 79.1241 28.4093 79.2996V79.7304H23.0429Z" fill="#231F20"/>
<path d="M51.8093 63.3548C51.1271 63.759 50.898 64.3387 50.3651 65.5513L44.9721 77.8317C44.7962 78.2625 44.695 78.5391 44.695 78.6667C44.695 78.9433 44.9241 79.172 45.3771 79.2996V79.7304H39.2007V79.2996C39.6323 79.172 39.8562 78.9698 39.8562 78.6933C39.8562 78.5178 39.7549 78.2412 39.579 77.8317L33.6265 64.5408C33.3227 63.86 33.2215 63.5569 32.5873 63.3548V62.924H38.4386V63.3548C37.9857 63.4824 37.7565 63.6579 37.7565 63.9345C37.7565 64.11 37.8578 64.3866 38.0336 64.7908L42.59 75.0235L47.0184 64.7908C47.1943 64.4132 47.2955 64.1366 47.2955 63.9345C47.2955 63.6845 47.0664 63.4771 46.5868 63.3548V62.924H51.8039V63.3548H51.8093Z" fill="#231F20"/>
<path d="M55.9659 79.7304V79.2996C56.648 79.1241 56.7493 78.9698 56.7493 78.3423V64.3174C56.7493 63.6898 56.648 63.5356 55.9659 63.3601V62.9293H61.3323V63.3601C60.6502 63.5356 60.5223 63.6898 60.5223 64.3174V78.3423C60.5223 78.9752 60.6502 79.1241 61.3323 79.2996V79.7304H55.9659Z" fill="#231F20"/>
<path d="M84.0235 74.3215C84.0235 77.5817 80.8314 79.9591 75.6675 79.9591H75.2625C71.74 79.9591 69.4378 79.1507 67.8178 78.4167C67.4661 78.2678 67.2369 78.188 67.109 78.188C66.8799 78.188 66.7786 78.3369 66.4749 78.6667C66.347 78.5922 66.2244 78.5656 66.0965 78.4912C66.8053 76.9754 67.5407 75.5607 68.2761 74.0715C68.404 74.146 68.5266 74.1992 68.6545 74.2736C68.5532 74.4225 68.5052 74.5502 68.5052 74.6778C68.5052 75.1086 69.0381 75.5873 70.1253 76.0925C71.6441 76.8265 73.4453 77.2786 75.6462 77.2786C78.6571 77.2786 80.3784 76.2415 80.3784 74.7257C80.3784 73.9439 80.0267 73.3854 79.2913 73.0557C78.4813 72.577 77.4421 72.577 74.6816 72.5026C71.772 72.3749 69.9707 71.9707 68.6811 71.0879C67.594 70.3273 67.0344 69.2423 67.0344 67.8542C67.0344 64.8227 70.1732 62.674 75.1399 62.674C78.1029 62.674 80.3091 63.4558 81.9505 64.0409C82.1263 64.0887 82.2809 64.1153 82.4035 64.1153C82.4781 64.1153 82.5314 64.1419 82.606 64.1419C82.8831 64.1419 82.9577 64.0409 83.1868 63.7111C83.3147 63.7856 83.4426 63.8122 83.5652 63.8866C82.8831 65.2269 82.2969 66.5618 81.6147 67.9074C81.4869 67.8329 81.3643 67.8063 81.2364 67.7319C81.311 67.4287 81.3643 67.3011 81.3643 67.2C81.3643 66.9235 81.0605 66.6203 80.4797 66.3438C79.19 65.7109 77.2875 65.3067 75.2625 65.3067C72.3528 65.3067 70.5516 66.3438 70.5516 67.6574C70.5516 68.2371 70.8554 68.6679 71.4362 68.9445C72.145 69.2743 73.1575 69.3753 75.0813 69.4498L76.7546 69.5242C79.5684 69.6519 81.2097 70.0773 82.3502 70.8911C83.4639 71.6995 84.0235 72.8376 84.0235 74.3268V74.3215Z" fill="#231F20"/>
<path d="M105.798 74.3215C105.798 77.5817 102.606 79.9591 97.4421 79.9591H97.0371C93.5146 79.9591 91.2124 79.1507 89.5924 78.4167C89.2407 78.2678 89.0115 78.188 88.8836 78.188C88.6545 78.188 88.5532 78.3369 88.2548 78.6667C88.1269 78.5922 87.999 78.5656 87.8764 78.4912C88.5852 76.9754 89.3206 75.5607 90.056 74.0715C90.1839 74.146 90.3065 74.1992 90.4344 74.2736C90.3331 74.4225 90.2852 74.5502 90.2852 74.6778C90.2852 75.1086 90.8181 75.5873 91.9052 76.0925C93.424 76.8265 95.2199 77.2786 97.4261 77.2786C100.442 77.2786 102.164 76.2415 102.164 74.7257C102.164 73.9439 101.807 73.3854 101.071 73.0557C100.261 72.577 99.222 72.577 96.4669 72.5026C93.5519 72.3749 91.756 71.9707 90.4663 71.0879C89.3792 70.3273 88.8197 69.2423 88.8197 67.8542C88.8197 64.8227 91.9585 62.674 96.9252 62.674C99.8882 62.674 102.089 63.4558 103.736 64.0409C103.912 64.0887 104.066 64.1153 104.189 64.1153C104.263 64.1153 104.317 64.1419 104.391 64.1419C104.668 64.1419 104.743 64.0409 104.972 63.7111C105.1 63.7856 105.223 63.8122 105.35 63.8866C104.668 65.2269 104.082 66.5618 103.4 67.9074C103.272 67.8329 103.15 67.8063 103.022 67.7319C103.096 67.4287 103.15 67.3011 103.15 67.2C103.15 66.9235 102.846 66.6203 102.265 66.3438C100.97 65.7109 99.0728 65.3067 97.0478 65.3067C94.1328 65.3067 92.3369 66.3438 92.3369 67.6574C92.3369 68.2371 92.6406 68.6679 93.2215 68.9445C93.9302 69.2743 94.9428 69.3753 96.8666 69.4498L98.5399 69.5242C101.348 69.6519 102.995 70.0773 104.135 70.8911C105.249 71.6995 105.809 72.8376 105.809 74.3268L105.798 74.3215Z" fill="#231F20"/>
<path d="M110.919 79.7304V79.2996C111.601 79.1241 111.703 78.9698 111.703 78.3423V64.3174C111.703 63.6898 111.601 63.5356 110.919 63.3601V62.9293H116.286V63.3601C115.604 63.5356 115.476 63.6898 115.476 64.3174V78.3423C115.476 78.9752 115.604 79.1241 116.286 79.2996V79.7304H110.919Z" fill="#231F20"/>
<path d="M140.826 71.3112C140.826 74.1407 139.915 76.417 138.194 77.8583C136.648 79.1985 134.852 79.6293 132.321 79.7038C132.044 79.7304 131.74 79.7304 131.463 79.7304H122.371V79.2996C123.006 79.1241 123.155 78.9964 123.155 78.4167V64.2642C123.155 63.6845 123.006 63.5569 122.371 63.3814V62.9293H130.6C131.207 62.9293 131.74 62.9559 132.321 62.9772C134.852 63.0516 136.648 63.4824 138.194 64.8227C139.915 66.3119 140.826 68.5616 140.826 71.3166V71.3112ZM136.952 71.29C136.952 69.721 136.547 68.4871 135.758 67.5511C134.921 66.5671 133.808 66.1363 131.985 66.0353C131.506 66.0087 131.047 65.9821 130.541 65.9821H126.917V76.6457H130.541C133.248 76.6457 134.767 76.2946 135.785 75.0767C136.568 74.1407 136.952 72.8802 136.952 71.2846V71.29Z" fill="#231F20"/>
<path d="M146.118 79.7304V79.2996C146.8 79.1241 146.901 78.9698 146.901 78.3423V64.3174C146.901 63.6898 146.8 63.5356 146.118 63.3601V62.9293H151.484V63.3601C150.802 63.5356 150.674 63.6898 150.674 64.3174V78.3423C150.674 78.9752 150.802 79.1241 151.484 79.2996V79.7304H146.118Z" fill="#231F20"/>
<path d="M174.175 74.3215C174.175 77.5817 170.983 79.9591 165.819 79.9591H165.414C161.892 79.9591 159.59 79.1507 157.97 78.4167C157.618 78.2678 157.389 78.188 157.261 78.188C157.032 78.188 156.931 78.3369 156.632 78.6667C156.504 78.5922 156.376 78.5656 156.254 78.4912C156.963 76.9754 157.698 75.5607 158.433 74.0715C158.561 74.146 158.684 74.1992 158.812 74.2736C158.71 74.4225 158.662 74.5502 158.662 74.6778C158.662 75.1086 159.195 75.5873 160.283 76.0925C161.801 76.8265 163.597 77.2786 165.803 77.2786C168.82 77.2786 170.541 76.2415 170.541 74.7257C170.541 73.9439 170.184 73.3854 169.449 73.0557C168.639 72.577 167.599 72.577 164.844 72.5026C161.929 72.3749 160.133 71.9707 158.844 71.0879C157.757 70.3273 157.197 69.2423 157.197 67.8542C157.197 64.8227 160.336 62.674 165.303 62.674C168.265 62.674 170.466 63.4558 172.113 64.0409C172.289 64.0887 172.443 64.1153 172.566 64.1153C172.641 64.1153 172.694 64.1419 172.769 64.1419C173.046 64.1419 173.12 64.0409 173.349 63.7111C173.477 63.7856 173.6 63.8122 173.728 63.8866C173.046 65.2269 172.459 66.5618 171.777 67.9074C171.649 67.8329 171.527 67.8063 171.399 67.7319C171.474 67.4287 171.527 67.3011 171.527 67.2C171.527 66.9235 171.223 66.6203 170.642 66.3438C169.347 65.7109 167.45 65.3067 165.425 65.3067C162.51 65.3067 160.714 66.3438 160.714 67.6574C160.714 68.2371 161.018 68.6679 161.599 68.9445C162.308 69.2743 163.32 69.3753 165.244 69.4498L166.917 69.5242C169.726 69.6519 171.372 70.0773 172.513 70.8911C173.627 71.6995 174.186 72.8376 174.186 74.3268L174.175 74.3215Z" fill="#231F20"/>
<path d="M87.5107 0.967203C107.402 0.967203 123.588 12.408 123.588 26.4672C123.588 40.5264 107.402 51.9618 87.5107 51.9618C67.6195 51.9618 51.4388 40.5264 51.4388 26.4672C51.4388 12.408 67.6195 0.967203 87.5107 0.967203ZM87.5107 0C67.084 0 50.4643 11.8736 50.4643 26.4672C50.4643 41.0607 67.084 52.9343 87.5107 52.9343C107.937 52.9343 124.557 41.0607 124.557 26.4672C124.557 11.8736 107.943 0 87.5107 0Z" fill="#231F20"/>
<path d="M87.5107 50.9946C68.1549 50.9946 52.4079 39.992 52.4079 26.4672C52.4079 12.9424 68.1549 1.93975 87.5107 1.93975C106.867 1.93975 122.614 12.9424 122.614 26.4672C122.614 39.992 106.867 50.9946 87.5107 50.9946Z" fill="#1A7563"/>
<path d="M98.4014 24.8213C85.5725 24.8213 83.4896 22.5396 81.9262 20.7227C80.5341 19.1036 80.4859 16.218 81.7763 14.5989C82.7668 13.3538 85.0959 11.4728 90.402 11.5477C94.7658 11.6064 98.6744 14.1286 99.5632 14.6096C100.286 14.9997 101.111 15.2455 101.667 14.5722C102.256 13.8508 101.635 12.937 100.934 12.3706C100.693 12.1729 95.5422 7.61472 87.3661 7.61472C82.2367 7.61472 78.1086 9.89112 76.1275 11.9645C73.3914 14.8287 73.1933 18.8418 75.5813 21.6151C77.2626 23.5656 79.2008 25.0137 84.8603 26.1465C87.2002 26.6168 91.6121 27.3061 93.7645 27.771C93.7645 27.771 100.265 29.1497 100.265 32.8475C100.265 36.5453 95.8902 38.64 89.4115 38.64C74.6015 38.64 67.4749 29.5986 67.4749 29.5986C67.93 27.6802 67.7748 25.8847 67.7748 25.8847C67.7159 25.2702 67.5338 24.6557 67.1001 24.6129C66.7253 24.5755 66.2595 24.9442 65.7883 26.3336C65.6063 26.8733 65.3439 27.4504 65.0762 27.9687C65.0762 27.9687 63.1112 26.884 60.6428 26.884C58.1745 26.884 55.4331 28.2039 55.4331 30.2879C55.4331 32.917 58.4529 33.975 60.6428 33.975C62.7042 33.975 65.0869 33.0292 66.2006 31.6933C66.2006 31.6933 75.3457 42.7707 91.2212 43.4226C104.693 43.973 110.341 38.1591 110.422 33.088C110.55 25.0244 98.4067 24.8373 98.4067 24.8373L98.4014 24.8213ZM60.7981 31.2658C59.9039 31.2658 59.1811 30.9078 59.1811 30.3894C59.1811 29.8283 59.9039 29.5024 60.7981 29.5024C61.6923 29.5024 62.9559 29.9726 62.9559 30.3894C62.9559 30.8062 61.6923 31.2658 60.7981 31.2658Z" fill="white"/>
<path d="M53.9232 43.8929C53.1789 43.9249 52.5364 43.5509 52.2848 42.9363C52.1134 42.5195 52.1509 42.0386 52.3811 41.6165C52.5953 41.2264 52.9594 40.9111 53.3985 40.7294L108.928 18.5639C109.313 18.4036 109.726 18.254 110.117 18.2379C110.652 18.2166 111.07 18.4624 111.252 18.9219C111.391 19.2639 111.332 19.5418 111.257 19.7128C111.043 20.2204 110.459 20.4555 109.897 20.6853L54.6299 43.7325C54.3944 43.8287 54.1588 43.8822 53.9178 43.8929H53.9232Z" fill="white"/>
<path d="M53.9018 43.1982C53.1575 43.2302 52.515 42.8562 52.2633 42.2417C52.092 41.8249 52.1295 41.3439 52.3597 40.9218C52.5739 40.5317 52.938 40.2164 53.377 40.0347L108.906 17.8692C109.292 17.7089 109.704 17.5646 110.095 17.5432C110.631 17.5219 111.048 17.7677 111.23 18.2272C111.369 18.5639 111.311 18.8471 111.236 19.0181C111.021 19.5257 110.438 19.7609 109.876 19.9906L54.6085 43.0379C54.3729 43.1341 54.1374 43.1875 53.8964 43.1982H53.9018Z" fill="#231F20"/>
<path d="M109.94 18.7242C109.731 18.7723 109.522 18.8524 109.34 18.9273L53.8107 41.0928C53.618 41.1729 53.452 41.3119 53.3663 41.4668C53.3289 41.5416 53.27 41.6806 53.3235 41.8088C53.4145 42.0386 53.8268 42.1294 54.1802 41.9798L109.362 18.97C109.554 18.8899 109.774 18.8044 109.945 18.7242H109.94Z" fill="#D1D3D4"/>
<path d="M117.987 26.6221C119.377 26.6221 120.504 25.4977 120.504 24.1106C120.504 22.7235 119.377 21.5991 117.987 21.5991C116.598 21.5991 115.471 22.7235 115.471 24.1106C115.471 25.4977 116.598 26.6221 117.987 26.6221Z" fill="#ED1C24"/>
<path d="M111.493 26.6221C112.882 26.6221 114.009 25.4977 114.009 24.1106C114.009 22.7235 112.882 21.5991 111.493 21.5991C110.103 21.5991 108.976 22.7235 108.976 24.1106C108.976 25.4977 110.103 26.6221 111.493 26.6221Z" fill="white"/>
<path d="M114.743 20.1403C116.133 20.1403 117.259 19.0158 117.259 17.6287C117.259 16.2417 116.133 15.1172 114.743 15.1172C113.353 15.1172 112.226 16.2417 112.226 17.6287C112.226 19.0158 113.353 20.1403 114.743 20.1403Z" fill="white"/>
<path d="M113.517 18.2379C113.824 18.2379 114.073 17.9891 114.073 17.6822C114.073 17.3753 113.824 17.1264 113.517 17.1264C113.209 17.1264 112.96 17.3753 112.96 17.6822C112.96 17.9891 113.209 18.2379 113.517 18.2379Z" fill="#231F20"/>
<path d="M140.583 13.4447H174.4" stroke="#231F20" stroke-width="1.8" stroke-miterlimit="10"/>
<path d="M140.583 39.495H174.4" stroke="#231F20" stroke-width="1.8" stroke-miterlimit="10"/>
<path d="M0.599682 13.4447H34.4175" stroke="#231F20" stroke-width="1.8" stroke-miterlimit="10"/>
<path d="M0.599682 39.495H34.4175" stroke="#231F20" stroke-width="1.8" stroke-miterlimit="10"/>
<path d="M9.32184 29.8019C9.25759 29.5668 9.2094 29.524 8.98987 29.524H3.93006V29.3744C4.16565 29.3156 4.20313 29.2622 4.20313 29.0431V24.1911C4.20313 23.972 4.171 23.9185 3.93006 23.8597V23.7101H8.96846C9.18798 23.7101 9.24153 23.6674 9.30042 23.4323H9.45034V25.0674H9.30042C9.24153 24.8323 9.18798 24.7895 8.96846 24.7895H5.50422V26.0293H7.6513C7.87082 26.0293 7.92437 25.9919 7.98326 25.7567H8.14389V27.3118H7.98326C7.91901 27.0766 7.87082 27.0339 7.6513 27.0339H5.50422V28.4446H8.98452C9.20405 28.4446 9.25759 28.3912 9.31648 28.156H9.46641V29.8072H9.31648L9.32184 29.8019Z" fill="#231F20"/>
<path d="M16.8446 27.6535C16.8446 28.781 15.7416 29.6039 13.9533 29.6039H13.8141C12.5987 29.6039 11.7955 29.326 11.2387 29.0695C11.1155 29.0161 11.0352 28.9894 10.9924 28.9894C10.9121 28.9894 10.8799 29.0428 10.7729 29.155C10.73 29.1283 10.6872 29.1176 10.639 29.0909C10.8853 28.5672 11.1423 28.0756 11.394 27.5573C11.4368 27.584 11.4796 27.6 11.5278 27.6267C11.4903 27.6748 11.4743 27.7229 11.4743 27.7657C11.4743 27.9153 11.6563 28.081 12.0365 28.2573C12.5612 28.5084 13.1823 28.6688 13.948 28.6688C14.992 28.6688 15.5864 28.3107 15.5864 27.7817C15.5864 27.5092 15.4632 27.3221 15.2116 27.2046C14.9331 27.0389 14.5691 27.0389 13.616 27.0122C12.6094 26.9695 11.9883 26.8305 11.5385 26.5206C11.1637 26.2588 10.971 25.8794 10.971 25.3984C10.971 24.3457 12.0579 23.603 13.7766 23.603C14.7993 23.603 15.565 23.8755 16.1325 24.0785C16.1968 24.0946 16.245 24.1053 16.2931 24.1053C16.3199 24.1053 16.336 24.1106 16.3627 24.1106C16.4591 24.1106 16.4859 24.0785 16.5662 23.961C16.609 23.9877 16.6572 23.9984 16.7001 24.0251C16.4645 24.49 16.261 24.9496 16.0254 25.4145C15.9826 25.3877 15.9344 25.3824 15.8916 25.3557C15.9183 25.2488 15.9344 25.2061 15.9344 25.174C15.9344 25.0778 15.8273 24.9709 15.6292 24.8748C15.1848 24.6557 14.5262 24.5167 13.8248 24.5167C12.8182 24.5167 12.1971 24.8748 12.1971 25.329C12.1971 25.532 12.3042 25.6763 12.5023 25.7725C12.7486 25.8847 13.0966 25.9221 13.7659 25.9488L14.3442 25.9755C15.3133 26.0183 15.8862 26.1679 16.2824 26.4511C16.6679 26.729 16.8607 27.1244 16.8607 27.6428L16.8446 27.6535Z" fill="#231F20"/>
<path d="M23.5482 25.1152C23.484 24.8801 23.4358 24.8267 23.2163 24.8267H21.3904V29.0428C21.3904 29.2619 21.4279 29.3153 21.6635 29.3741V29.5237H19.8056V29.3741C20.0412 29.3153 20.0947 29.2619 20.0947 29.0428V24.8267H18.2635C18.044 24.8267 17.9851 24.8801 17.9208 25.1152H17.7656V23.4266H17.9208C17.9851 23.6617 18.044 23.7045 18.2635 23.7045H23.2163C23.4358 23.7045 23.4893 23.6617 23.5482 23.4266H23.7088V25.1152H23.5482Z" fill="#231F20"/>
<path d="M31.3441 26.6114C31.3441 27.5893 31.0282 28.3749 30.4339 28.8772C29.8984 29.3367 29.2773 29.4917 28.3992 29.5184C28.3028 29.5237 28.1958 29.5237 28.0994 29.5237H24.951V29.3741C25.1706 29.3153 25.2241 29.2672 25.2241 29.0695V24.1694C25.2241 23.9663 25.1706 23.9236 24.951 23.8648V23.7045H27.7995C28.0084 23.7045 28.1958 23.7152 28.3939 23.7205C29.272 23.7472 29.8931 23.8969 30.4285 24.3618C31.0228 24.8801 31.3387 25.6549 31.3387 26.6114H31.3441ZM30.0002 26.6008C30.0002 26.0557 29.8609 25.6282 29.5879 25.3076C29.2987 24.9656 28.9132 24.816 28.2814 24.7839C28.1154 24.7732 27.9602 24.7625 27.7835 24.7625H26.5306V28.455H27.7835C28.7205 28.455 29.2506 28.3321 29.5986 27.9153C29.8717 27.5893 30.0002 27.1512 30.0002 26.6008Z" fill="#231F20"/>
<path d="M145.332 29.5237V29.3688C145.583 29.3047 145.616 29.2512 145.616 29.0161V25.0885C145.423 25.1687 145.219 25.2435 145.021 25.3076C144.807 25.3717 144.78 25.3717 144.716 25.6229H144.555V24.0037H144.716C144.759 24.2175 144.77 24.2709 144.909 24.2709H144.957C144.995 24.2709 145.048 24.2496 145.123 24.2228C145.246 24.1854 145.353 24.1427 145.476 24.0946C145.551 24.0144 145.626 23.9129 145.626 23.8114C145.626 23.635 145.562 23.6083 145.348 23.5442V23.3785H147.275V23.5442C147.024 23.6083 146.992 23.6671 146.992 23.8969V29.0214C146.992 29.2512 147.029 29.3047 147.275 29.3741V29.5291H145.332V29.5237Z" fill="#231F20"/>
<path d="M155.912 26.3336C155.912 28.2947 154.568 29.652 152.517 29.652C152.453 29.652 152.405 29.652 152.378 29.6413C151.602 29.5772 151.007 29.4008 150.488 29.1818C150.408 29.155 150.349 29.139 150.306 29.139C150.204 29.139 150.145 29.1924 150.044 29.3047C149.995 29.2779 149.942 29.2512 149.904 29.2245C150.194 28.7436 150.461 28.252 150.745 27.771C150.793 27.7977 150.836 27.8298 150.874 27.8512C150.847 27.9367 150.836 28.0008 150.836 28.0489C150.836 28.1665 150.9 28.2145 151.077 28.3C151.436 28.4924 151.848 28.6848 152.485 28.6848C153.813 28.6848 154.616 27.8084 154.616 26.5206C154.022 27.1458 153.288 27.4611 152.421 27.4611C151.034 27.4611 150.001 26.574 150.001 25.4252C150.001 24.1427 151.104 23.261 152.812 23.261C154.664 23.261 155.907 24.474 155.907 26.3282L155.912 26.3336ZM154.284 25.4038C154.284 24.7732 153.663 24.3297 152.737 24.3297C151.811 24.3297 151.291 24.7839 151.291 25.4145C151.291 26.045 151.859 26.4672 152.748 26.4672C153.636 26.4672 154.284 26.0611 154.284 25.4038Z" fill="#231F20"/>
<path d="M163.574 29.8123C163.51 29.5612 163.461 29.5237 163.215 29.5237H158.466C158.236 29.5237 158.166 29.5612 158.107 29.8123H157.947V29.7108C157.947 29.6841 157.947 29.6467 157.957 29.6146C158 28.5138 158.616 27.6909 159.885 26.9267C160.254 26.697 160.624 26.5313 160.966 26.355C161.775 25.9862 162.134 25.7137 162.134 25.2274C162.134 24.5969 161.464 24.3938 160.95 24.3938C160.383 24.3938 159.858 24.6236 159.478 24.9496C159.237 25.1419 159.119 25.2916 159.119 25.4091C159.119 25.4733 159.146 25.5481 159.21 25.6496C159.167 25.6763 159.119 25.7137 159.082 25.7404C158.685 25.2488 158.305 24.7679 157.904 24.2816C157.941 24.2442 157.979 24.2175 158.027 24.1801C158.129 24.2442 158.214 24.2923 158.279 24.2923C158.327 24.2923 158.38 24.2656 158.466 24.2015C158.68 24.0251 158.937 23.8381 159.312 23.6671C159.831 23.4373 160.34 23.2663 161.041 23.2663C162.53 23.2663 163.478 24.0679 163.478 25.1794C163.478 26.355 162.589 26.8038 161.652 27.2473C161.031 27.5466 160.281 27.7924 159.906 28.4123H163.221C163.472 28.4123 163.52 28.3535 163.579 28.1077H163.74V29.8123H163.579H163.574Z" fill="#231F20"/>
<path d="M171.884 27.739C171.884 28.284 171.621 28.7596 171.15 29.1016C170.642 29.4596 169.887 29.6467 168.901 29.6467C167.916 29.6467 167.177 29.465 166.669 29.1016C166.198 28.7596 165.935 28.2894 165.935 27.739C165.935 27.0283 166.342 26.5313 167.167 26.2588C166.508 25.9702 166.224 25.5855 166.224 24.9656C166.224 23.9236 167.188 23.261 168.901 23.261C170.615 23.261 171.605 23.9182 171.605 24.9656C171.605 25.5641 171.289 25.9916 170.663 26.2588C171.477 26.526 171.889 27.0229 171.889 27.739H171.884ZM170.556 27.7069C170.556 27.1405 169.972 26.7718 168.891 26.7718C167.809 26.7718 167.263 27.1405 167.263 27.7069C167.263 28.2733 167.836 28.642 168.901 28.642C169.967 28.642 170.561 28.3 170.561 27.7069H170.556ZM170.299 25.0244C170.299 24.5167 169.78 24.2282 168.891 24.2282C168.002 24.2282 167.52 24.5328 167.52 25.0244C167.52 25.516 168.023 25.8099 168.912 25.8099C169.801 25.8099 170.299 25.5107 170.299 25.0244Z" fill="#231F20"/>
</g>
<defs>
<clipPath id="clip0_68_202">
<rect width="175" height="80" fill="white"/>
</clipPath>
</defs>
</svg>
